# xmcd
#
# Track frame offsets: 
#        150
#        21290
#        40092
#        59040
#        76327
#        95262
#        111064
#        130566
#        153992
#        178641
#
# Disc length: 2949 seconds
#
# Revision: 1
# Processed by: cddbd v1.5.2PL0 Copyright (c) Steve Scherf et al.
# Submitted via: ExactAudioCopy v0.95b4
#
DISCID=750b830a
DTITLE=Steamroller - Stay in Power
DYEAR=1998
DGENRE=R&B
TTITLE0=Stay in Power
TTITLE1=Seven Forty Seven
TTITLE2=This Time you ain't right
TTITLE3=Think it is Love
TTITLE4=Moon's Talking
TTITLE5=Good Times
TTITLE6=Left Hand Blues
TTITLE7=Blues and Rock'n'Roll
TTITLE8=Song of Nature
TTITLE9=Promise against my Soul
EXTD=First CD 
EXTT0=
EXTT1=
EXTT2=
EXTT3=
EXTT4=
EXTT5=
EXTT6=
EXTT7=
EXTT8=
EXTT9=
PLAYORDER=
